# xmcd
#
# Track frame offsets: 
#        150
#        11563
#        14732
#        34219
#        40896
#        50889
#        63452
#        70580
#        81380
#        95134
#        100975
#        125658
#        131924
#        136824
#        151685
#        162764
#        178113
#        197781
#        208714
#        219904
#        235818
#        241023
#        247170
#        251274
#        259198
#        267330
#        275299
#        277685
#        288938
#        291491
#        300822
#        306913
#
# Disc length: 4121 seconds
#
# Revision: 0
# Processed by: cddbd v1.5.2PL0 Copyright (c) Steve Scherf et al.
# Submitted via: ExactAudioCopy v0.95b3
#
DISCID=d9101720
DTITLE=The Beatles  - Final River Rhine Tapes  FLAC
DYEAR=1900
DGENRE=
TTITLE0=Get Back Under Water
TTITLE1=Friendship
TTITLE2=Let It Be
TTITLE3=Mae
TTITLE4=The Midnight Special
TTITLE5=Old Brown Shoe
TTITLE6=Martha My Dear
TTITLE7=Get Back (In German)
TTITLE8=One After 909
TTITLE9=Pam
TTITLE10=I Want You
TTITLE11=Grease Paint On Your Face
TTITLE12=Garden
TTITLE13=She Came In Through The Bathroom Window
TTITLE14=I've Got A Feeling
TTITLE15=You Really Got A Hold On Me
TTITLE16=I Lost My Little Girl
TTITLE17=Mucho
TTITLE18=Eddie The Dog
TTITLE19=Back
TTITLE20=Penina
TTITLE21=Grown
TTITLE22=Devil In Her Heart
TTITLE23=Don't Be Cruel
TTITLE24=Hike
TTITLE25=Mustard
TTITLE26=The Inner Light
TTITLE27=Three Cool Cats
TTITLE28=She Said She Said
TTITLE29=You Can't Do That
TTITLE30=You Win Again
TTITLE31=Across The Universe
EXTD=
EXTT0=
EXTT1=
EXTT2=
EXTT3=
EXTT4=
EXTT5=
EXTT6=
EXTT7=
EXTT8=
EXTT9=
EXTT10=
EXTT11=
EXTT12=
EXTT13=
EXTT14=
EXTT15=
EXTT16=
EXTT17=
EXTT18=
EXTT19=
EXTT20=
EXTT21=
EXTT22=
EXTT23=
EXTT24=
EXTT25=
EXTT26=
EXTT27=
EXTT28=
EXTT29=
EXTT30=
EXTT31=
PLAYORDER=
